<svg width="33" height="33" viewBox="0 0 33 33" fill="none" xmlns="http://www.w3.org/2000/svg">
<path d="M11.8333 31.2402H21.6667M11.8333 31.2402V23.0458M11.8333 31.2402H2.98333C2.72254 31.2402 2.47242 31.1366 2.28801 30.9522C2.1036 30.7678 2 30.5177 2 30.2569V24.0291C2 23.7683 2.1036 23.5182 2.28801 23.3338C2.47242 23.1494 2.72254 23.0458 2.98333 23.0458H11.8333M21.6667 31.2402V11.5736M21.6667 31.2402H30.5167C30.7775 31.2402 31.0276 31.1366 31.212 30.9522C31.3964 30.7678 31.5 30.5177 31.5 30.2569V2.72357C31.5 2.46277 31.3964 2.21266 31.212 2.02825C31.0276 1.84384 30.7775 1.74023 30.5167 1.74023H22.65C22.3892 1.74023 22.1391 1.84384 21.9547 2.02825C21.7703 2.21266 21.6667 2.46277 21.6667 2.72357V11.5736M21.6667 11.5736H12.8167C12.5559 11.5736 12.3058 11.6772 12.1213 11.8616C11.9369 12.046 11.8333 12.2961 11.8333 12.5569V23.0458" stroke="#171717" stroke-width="2.5"/>
</svg>
