<?xml version="1.0" encoding="UTF-8"?>
<svg xmlns="http://www.w3.org/2000/svg" version="1.1" viewBox="0 0 1080 1080">
  <defs>
    <style>
      .cls-1 {
        stroke-width: 14px;
      }

      .cls-1, .cls-2 {
        fill: none;
        stroke: #76cede;
        stroke-miterlimit: 10;
      }

      .cls-3 {
        fill: #fbcc0c;
      }

      .cls-4 {
        fill: #76cede;
      }

      .cls-5 {
        display: none;
      }
    </style>
  </defs>
  <!-- Generator: Adobe Illustrator 28.7.1, SVG Export Plug-In . SVG Version: 1.2.0 Build 142)  -->
  <g>
    <g id="Layer_1" class="cls-5">
      <path class="cls-3" d="M526.75,628.93h-185.67c-13.53,0-22.05-14.56-15.43-26.35l220.38-392.61c9.42-16.79,35.08-8.58,33.02,10.56l-24.88,230.75h185.67c13.53,0,22.05,14.56,15.43,26.35l-220.38,392.61c-9.42,16.79-35.08,8.58-33.02-10.56l24.88-230.75Z"/>
    </g>
    <g id="Layer_4" class="cls-5">
      <rect class="cls-2" x="241.02" y="135.04" width="88.4" height="87.64"/>
      <rect class="cls-2" x="329.43" y="135.04" width="88.4" height="87.64"/>
      <rect class="cls-2" x="241.02" y="222.69" width="176.81" height="176.81"/>
      <rect class="cls-2" x="417.83" y="135.04" width="264.45" height="264.45"/>
      <rect class="cls-2" x="241.4" y="399.49" width="442.31" height="436.67"/>
    </g>
    <g id="Layer_3">
      <circle class="cls-4" cx="563.29" cy="529.15" r="221.84"/>
      <circle class="cls-4" cx="135.57" cy="190.44" r="72.86"/>
      <circle class="cls-4" cx="878.72" cy="125.36" r="72.86"/>
      <circle class="cls-4" cx="878.72" cy="882.29" r="72.86"/>
      <circle class="cls-4" cx="242.36" cy="871.04" r="72.86"/>
      <line class="cls-1" x1="563.29" y1="529.15" x2="135.57" y2="190.44"/>
      <path class="cls-1" d="M574.48,535.95l304.24,346.34"/>
      <path class="cls-1" d="M574.48,535.95l-332.12,335.1"/>
      <path class="cls-1" d="M574.48,535.95L878.72,125.36"/>
    </g>
    <g id="Layer_2">
      <g>
        <path class="cls-3" d="M540.28,28L218.14,615.47c-12.31,22.45,3.93,49.89,29.54,49.89h251.54c15.4,0,28.35-11.56,30.1-26.86L596.94,46c3.77-33.01-40.68-47.14-56.66-18Z"/>
        <path class="cls-3" d="M587.2,1028.68l321.26-585.84c12.31-22.45-3.93-49.89-29.54-49.89h-251.21c-15.59,0-28.69,11.69-30.46,27.18l-67.38,590.33c-3.81,33.41,41.17,47.7,57.34,18.22Z"/>
      </g>
    </g>
  </g>
</svg>